<svg width="117" height="24" viewBox="0 0 117 24" fill="none" xmlns="http://www.w3.org/2000/svg">
<path d="M28.4 10.76C28.68 10.6267 29.0133 10.4933 29.4 10.36C29.7867 10.2267 30.2067 10.1133 30.66 10.02C31.1133 9.91333 31.5667 9.83333 32.02 9.78C32.4867 9.71333 32.9267 9.68 33.34 9.68C34.2733 9.68 35.0467 9.80667 35.66 10.06C36.2867 10.3 36.7533 10.6867 37.06 11.22C37.38 11.74 37.54 12.4267 37.54 13.28V20H35.02V13.72C35.02 13.4667 34.9867 13.2267 34.92 13C34.8533 12.76 34.74 12.5533 34.58 12.38C34.42 12.1933 34.2 12.0533 33.92 11.96C33.64 11.8533 33.28 11.8 32.84 11.8C32.5067 11.8 32.1667 11.8333 31.82 11.9C31.4733 11.9667 31.18 12.0533 30.94 12.16V20H28.4V10.76ZM44.9336 20.3C44.0003 20.3 43.1869 20.1533 42.4936 19.86C41.8136 19.5533 41.2803 19.1 40.8936 18.5C40.5203 17.9 40.3336 17.1333 40.3336 16.2V9.92H42.8736V15.94C42.8736 16.6867 43.0403 17.24 43.3736 17.6C43.7069 17.96 44.2269 18.14 44.9336 18.14C45.6669 18.14 46.1936 17.96 46.5136 17.6C46.8469 17.24 47.0136 16.6867 47.0136 15.94V9.92H49.4136V16.2C49.4136 17.5867 49.0136 18.62 48.2136 19.3C47.4269 19.9667 46.3336 20.3 44.9336 20.3ZM56.0686 20.32C55.0286 20.32 54.2353 20.0667 53.6886 19.56C53.1419 19.04 52.8686 18.2933 52.8686 17.32V11.92H51.3086V9.92H52.8686V7.14H55.4886V9.92H57.8286V11.92H55.4886V16.92C55.4886 17.3333 55.5686 17.64 55.7286 17.84C55.8886 18.04 56.1686 18.14 56.5686 18.14C56.7819 18.14 57.0019 18.1067 57.2286 18.04C57.4686 17.96 57.6686 17.8667 57.8286 17.76V19.96C57.5619 20.0933 57.2686 20.1867 56.9486 20.24C56.6419 20.2933 56.3486 20.32 56.0686 20.32ZM60.1773 20V10.9C60.364 10.78 60.6907 10.62 61.1573 10.42C61.6373 10.22 62.1907 10.0467 62.8173 9.9C63.444 9.74 64.0773 9.66 64.7173 9.66C65.1973 9.66 65.5773 9.7 65.8573 9.78C66.1507 9.84667 66.3773 9.93333 66.5373 10.04V11.96C66.2707 11.92 65.964 11.8867 65.6173 11.86C65.284 11.8333 64.9373 11.8267 64.5773 11.84C64.2307 11.84 63.8907 11.8533 63.5573 11.88C63.2373 11.9067 62.9573 11.94 62.7173 11.98V20H60.1773ZM68.4991 20V10.02H71.0391L71.0591 20H68.4991ZM68.4391 8.42V6.34H71.0991V8.42H68.4391ZM78.3478 20.3C77.7878 20.3 77.2411 20.2667 76.7078 20.2C76.1878 20.1333 75.7145 20.0133 75.2878 19.84C74.8745 19.6533 74.5411 19.4 74.2878 19.08C74.0345 18.76 73.9078 18.3467 73.9078 17.84V6.04H76.4078V11.5L75.8478 10.7C76.1011 10.46 76.4145 10.2667 76.7878 10.12C77.1611 9.97333 77.5411 9.86667 77.9278 9.8C78.3278 9.72 78.6611 9.68 78.9278 9.68C80.4345 9.68 81.5678 10.1333 82.3278 11.04C83.1011 11.9333 83.4878 13.2133 83.4878 14.88C83.4878 15.9467 83.3478 16.8333 83.0678 17.54C82.8011 18.2333 82.4278 18.78 81.9478 19.18C81.4678 19.58 80.9211 19.8667 80.3078 20.04C79.6945 20.2133 79.0411 20.3 78.3478 20.3ZM78.2678 18.16C78.9611 18.16 79.5011 18.02 79.8878 17.74C80.2745 17.46 80.5478 17.0867 80.7078 16.62C80.8678 16.1533 80.9478 15.62 80.9478 15.02C80.9478 14.26 80.8478 13.64 80.6478 13.16C80.4478 12.68 80.1611 12.3267 79.7878 12.1C79.4145 11.86 78.9545 11.74 78.4078 11.74C78.1011 11.74 77.7611 11.78 77.3878 11.86C77.0278 11.94 76.7011 12.0667 76.4078 12.24V17.2C76.4078 17.4533 76.4945 17.6533 76.6678 17.8C76.8545 17.9333 77.0878 18.0267 77.3678 18.08C77.6611 18.1333 77.9611 18.16 78.2678 18.16ZM89.5038 20.3C88.9438 20.3 88.4104 20.2467 87.9038 20.14C87.3971 20.0333 86.9438 19.86 86.5438 19.62C86.1438 19.3667 85.8238 19.0267 85.5838 18.6C85.3571 18.16 85.2438 17.6133 85.2438 16.96C85.2438 16.28 85.3838 15.7067 85.6637 15.24C85.9438 14.76 86.3504 14.4 86.8838 14.16C87.4304 13.9067 88.0971 13.78 88.8838 13.78C89.3638 13.78 89.8104 13.8267 90.2237 13.92C90.6371 14 91.0104 14.1133 91.3438 14.26C91.6771 14.4067 91.9504 14.5667 92.1638 14.74L92.3438 16.16C92.0638 15.9733 91.7038 15.8267 91.2638 15.72C90.8371 15.6 90.3704 15.54 89.8638 15.54C89.1571 15.54 88.6304 15.6533 88.2838 15.88C87.9371 16.1067 87.7638 16.46 87.7638 16.94C87.7638 17.2733 87.8571 17.5533 88.0438 17.78C88.2304 17.9933 88.4704 18.16 88.7638 18.28C89.0571 18.3867 89.3638 18.44 89.6838 18.44C90.4171 18.44 90.9438 18.3933 91.2638 18.3C91.5971 18.1933 91.7638 17.9733 91.7638 17.64V13.66C91.7638 13.0067 91.5571 12.5333 91.1438 12.24C90.7304 11.9333 90.1504 11.78 89.4038 11.78C88.8304 11.78 88.2438 11.88 87.6438 12.08C87.0438 12.2667 86.5571 12.5133 86.1838 12.82V10.52C86.5438 10.2933 87.0838 10.0933 87.8038 9.92C88.5238 9.74667 89.2971 9.66 90.1238 9.66C90.4704 9.66 90.8371 9.69333 91.2238 9.76C91.6104 9.82667 91.9771 9.93333 92.3238 10.08C92.6838 10.2267 93.0104 10.4333 93.3038 10.7C93.5971 10.9533 93.8304 11.28 94.0038 11.68C94.1771 12.0667 94.2638 12.54 94.2638 13.1V17.88C94.2638 18.5067 94.0638 19 93.6638 19.36C93.2638 19.7067 92.7104 19.9467 92.0038 20.08C91.2971 20.2267 90.4638 20.3 89.5038 20.3ZM100.032 20.3C99.3119 20.3 98.6985 20.22 98.1919 20.06C97.6852 19.9133 97.1985 19.7333 96.7319 19.52V17.24C97.0385 17.44 97.3585 17.6333 97.6919 17.82C98.0385 17.9933 98.4052 18.1333 98.7919 18.24C99.1919 18.3467 99.6185 18.4 100.072 18.4C100.605 18.4 100.999 18.3 101.252 18.1C101.519 17.8867 101.652 17.6333 101.652 17.34C101.652 17.06 101.552 16.8467 101.352 16.7C101.152 16.54 100.892 16.4067 100.572 16.3C100.252 16.1933 99.9119 16.0867 99.5519 15.98C99.2185 15.9 98.8785 15.7933 98.5319 15.66C98.1985 15.5267 97.8919 15.3467 97.6119 15.12C97.3319 14.8933 97.1052 14.6067 96.9319 14.26C96.7719 13.9 96.6919 13.4667 96.6919 12.96C96.6919 12.36 96.8119 11.8533 97.0519 11.44C97.2919 11.0267 97.6052 10.6933 97.9919 10.44C98.3785 10.1867 98.8052 10.0067 99.2719 9.9C99.7385 9.78 100.192 9.72 100.632 9.72C101.392 9.74667 102.005 9.84 102.472 10C102.939 10.1467 103.379 10.34 103.792 10.58L103.812 12.64C103.345 12.3867 102.892 12.16 102.452 11.96C102.012 11.7467 101.512 11.64 100.952 11.64C100.432 11.64 100.025 11.7333 99.7319 11.92C99.4519 12.0933 99.3119 12.34 99.3119 12.66C99.3119 12.94 99.3985 13.1667 99.5719 13.34C99.7452 13.5133 99.9719 13.6467 100.252 13.74C100.532 13.8333 100.839 13.9267 101.172 14.02C101.505 14.1133 101.852 14.22 102.212 14.34C102.572 14.4467 102.905 14.6067 103.212 14.82C103.519 15.0333 103.765 15.32 103.952 15.68C104.152 16.0267 104.252 16.4933 104.252 17.08C104.239 17.8533 104.032 18.48 103.632 18.96C103.232 19.4267 102.705 19.7667 102.052 19.98C101.412 20.1933 100.739 20.3 100.032 20.3ZM110.985 20.3C109.985 20.3 109.111 20.1 108.365 19.7C107.618 19.2867 107.038 18.6867 106.625 17.9C106.211 17.1133 106.005 16.1667 106.005 15.06C106.005 13.3 106.425 11.96 107.265 11.04C108.118 10.1067 109.311 9.64 110.845 9.64C111.951 9.64 112.838 9.88 113.505 10.36C114.185 10.84 114.678 11.5267 114.985 12.42C115.305 13.3 115.458 14.3533 115.445 15.58H107.645L107.445 13.86H113.425L112.945 14.58C112.918 13.5267 112.731 12.7733 112.385 12.32C112.051 11.8533 111.511 11.62 110.765 11.62C110.311 11.62 109.911 11.7267 109.565 11.94C109.231 12.14 108.971 12.48 108.785 12.96C108.611 13.44 108.525 14.1 108.525 14.94C108.525 15.98 108.771 16.78 109.265 17.34C109.758 17.8867 110.511 18.16 111.525 18.16C111.938 18.16 112.331 18.12 112.705 18.04C113.091 17.9467 113.445 17.84 113.765 17.72C114.098 17.6 114.378 17.4867 114.605 17.38V19.62C114.138 19.82 113.605 19.98 113.005 20.1C112.418 20.2333 111.745 20.3 110.985 20.3Z" fill="url(#paint0_linear_684_170)"/>
<path d="M10.1055 13.1034L5.05277 10.3448C5.05277 11.4448 5.05277 14.1724 5.05277 16.5517C2.93735 18.0034 1.04424 19.2931 0 20C0 17.6379 0 11.7241 0 7.05172L4.46328 4L15 9.76552L10.1055 13.1034Z" fill="#DC196F"/>
<path d="M19 19.8291L14.3818 23L4 17.2924L8.55086 14.1735L13.4521 16.8696C13.4521 15.7919 13.4521 13.1685 13.4521 10.812L18.9933 7C18.9933 9.34265 18.9933 15.1577 19 19.8291Z" fill="#DC196F"/>
<defs>
<linearGradient id="paint0_linear_684_170" x1="27" y1="15" x2="117" y2="14.5" gradientUnits="userSpaceOnUse">
<stop stop-color="#8257E6"/>
<stop offset="0.515625" stop-color="#D72891"/>
<stop offset="1" stop-color="#F1594B"/>
</linearGradient>
</defs>
</svg>
